<svg width="20" height="24" viewBox="0 0 20 24" fill="none" xmlns="http://www.w3.org/2000/svg">
<mask id="mask0_6254_15425" style="mask-type:luminance" maskUnits="userSpaceOnUse" x="8" y="0" width="12" height="21">
<path fill-rule="evenodd" clip-rule="evenodd" d="M18.5418 5.2307C19.0561 5.52953 19.3716 6.0845 19.3716 6.68216V18.67C19.3716 18.9155 19.2364 19.1423 19.0217 19.2597L17.2056 20.2469V11.901C17.2056 11.3113 16.8981 10.767 16.397 10.4629L8.53906 5.71897V0.838981C8.53906 0.689567 8.57883 0.545489 8.65041 0.417419C8.88106 0.0172016 9.39273 -0.118872 9.7904 0.113254L18.5418 5.2307Z" fill="white"/>
</mask>
<g mask="url(#mask0_6254_15425)">
<path fill-rule="evenodd" clip-rule="evenodd" d="M18.5418 5.2307C19.0561 5.52953 19.3716 6.0845 19.3716 6.68216V18.67C19.3716 18.9155 19.2364 19.1423 19.0217 19.2597L17.2056 20.2469V11.901C17.2056 11.3113 16.8981 10.767 16.397 10.4629L8.53906 5.71897V0.838981C8.53906 0.689567 8.57883 0.545489 8.65041 0.417419C8.88106 0.0172016 9.39273 -0.118872 9.7904 0.113254L18.5418 5.2307Z" fill="#00C289"/>
</g>
<mask id="mask1_6254_15425" style="mask-type:luminance" maskUnits="userSpaceOnUse" x="4" y="6" width="12" height="17">
<path fill-rule="evenodd" clip-rule="evenodd" d="M14.7105 11.2942C15.2221 11.5957 15.5376 12.1453 15.5376 12.743V20.9501C15.5376 21.1929 15.4077 21.417 15.1983 21.5344L13.2815 22.6204C13.2577 22.6337 13.2311 22.6444 13.2046 22.6524V18.0952C13.2046 17.5056 12.8971 16.9586 12.3934 16.6545L4.70508 12.0253V6.88115C4.70508 6.73174 4.74485 6.58766 4.81908 6.45959C5.04973 6.05937 5.5614 5.9233 5.95907 6.15809L14.7105 11.2942Z" fill="white"/>
</mask>
<g mask="url(#mask1_6254_15425)">
<path fill-rule="evenodd" clip-rule="evenodd" d="M14.7105 11.2942C15.2221 11.5957 15.5376 12.1453 15.5376 12.743V20.9501C15.5376 21.1929 15.4077 21.417 15.1983 21.5344L13.2815 22.6204C13.2577 22.6337 13.2311 22.6444 13.2046 22.6524V18.0952C13.2046 17.5056 12.8971 16.9586 12.3934 16.6545L4.70508 12.0253V6.88115C4.70508 6.73174 4.74485 6.58766 4.81908 6.45959C5.04973 6.05937 5.5614 5.9233 5.95907 6.15809L14.7105 11.2942Z" fill="#00C289"/>
</g>
<mask id="mask2_6254_15425" style="mask-type:luminance" maskUnits="userSpaceOnUse" x="0" y="12" width="12" height="12">
<path fill-rule="evenodd" clip-rule="evenodd" d="M1.66214 18.7033C1.06828 18.3378 0.705078 17.6868 0.705078 16.9877V13.0843C0.705078 12.9349 0.744845 12.7908 0.819077 12.6627C1.04973 12.2625 1.5614 12.1264 1.95907 12.3612L10.7131 17.4973C11.2248 17.7988 11.5403 18.3485 11.5403 18.9461V22.991C11.5403 23.1751 11.4899 23.3592 11.3945 23.5166C11.1055 23.9915 10.4904 24.141 10.0185 23.8501L1.66214 18.7033Z" fill="white"/>
</mask>
<g mask="url(#mask2_6254_15425)">
<path fill-rule="evenodd" clip-rule="evenodd" d="M1.66214 18.7033C1.06828 18.3378 0.705078 17.6868 0.705078 16.9877V13.0843C0.705078 12.9349 0.744845 12.7908 0.819077 12.6627C1.04973 12.2625 1.5614 12.1264 1.95907 12.3612L10.7131 17.4973C11.2248 17.7988 11.5403 18.3485 11.5403 18.9461V22.991C11.5403 23.1751 11.4899 23.3592 11.3945 23.5166C11.1055 23.9915 10.4904 24.141 10.0185 23.8501L1.66214 18.7033Z" fill="#00C289"/>
</g>
</svg>
