<svg viewBox="0 0 20 20" fill="none" xmlns="http://www.w3.org/2000/svg">
<path fill-rule="evenodd" clip-rule="evenodd" d="M10 20C15.5228 20 20 15.5228 20 10C20 4.47715 15.5228 0 10 0C4.47715 0 0 4.47715 0 10C0 15.5228 4.47715 20 10 20ZM13.7565 6.24351C13.3904 5.8774 12.7968 5.8774 12.4307 6.24351L10 8.67419L7.56932 6.24351C7.2032 5.8774 6.60961 5.8774 6.24349 6.24351C5.87738 6.60963 5.87738 7.20322 6.24349 7.56934L8.67418 10L6.24349 12.4307C5.87738 12.7968 5.87738 13.3904 6.24349 13.7565C6.60961 14.1226 7.2032 14.1226 7.56932 13.7565L10 11.3258L12.4307 13.7565C12.7968 14.1226 13.3904 14.1226 13.7565 13.7565C14.1226 13.3904 14.1226 12.7968 13.7565 12.4307L11.3258 10L13.7565 7.56934C14.1226 7.20322 14.1226 6.60963 13.7565 6.24351Z" fill="currentColor"/>
</svg>
