<svg viewBox="0 0 16 16" fill="none" xmlns="http://www.w3.org/2000/svg">
<path d="M9.66602 4.99902C10.4021 4.9992 10.9988 5.59591 10.999 6.33203V12.332C10.999 13.0683 10.4022 13.6658 9.66602 13.666H3.66602C2.92964 13.666 2.33203 13.0684 2.33203 12.332V6.33203C2.33221 5.5958 2.92974 4.99902 3.66602 4.99902H9.66602ZM4.16602 6.33203C3.88998 6.33203 3.66619 6.55604 3.66602 6.83203V11.832C3.66602 12.1082 3.88987 12.332 4.16602 12.332H9.16602C9.44201 12.3319 9.66602 12.1081 9.66602 11.832V6.83203C9.66584 6.55615 9.4419 6.33221 9.16602 6.33203H4.16602ZM12.332 2.33203C13.0684 2.33203 13.666 2.92964 13.666 3.66602V9.66602C13.6658 10.4022 13.0683 10.999 12.332 10.999H11.7764V9.66602H11.832C12.1081 9.66602 12.3319 9.44201 12.332 9.16602V4.16602C12.332 3.88987 12.1082 3.66602 11.832 3.66602H6.83203C6.55604 3.66619 6.33203 3.88998 6.33203 4.16602V4.22168H4.99902V3.66602C4.99902 2.92974 5.5958 2.33221 6.33203 2.33203H12.332Z" fill="currentColor"/>
</svg>
