<svg xmlns="http://www.w3.org/2000/svg" viewBox="0 0 16 16" fill="none">
    <path d="M7.22266 3.99707C7.59065 3.9973 7.88867 4.29602 7.88867 4.66406C7.88867 5.03211 7.59065 5.33082 7.22266 5.33105H5.16699C4.89085 5.33105 4.66699 5.55491 4.66699 5.83105V10.8311C4.66717 11.107 4.89096 11.3311 5.16699 11.3311H10.167C10.4429 11.3309 10.6668 11.1069 10.667 10.8311V8.77539C10.667 8.40731 10.965 8.10857 11.333 8.1084C11.7012 8.1084 12 8.4072 12 8.77539V11.3311C11.9998 12.0672 11.4031 12.6639 10.667 12.6641H4.66699C3.93072 12.6641 3.33318 12.0673 3.33301 11.3311V5.33105C3.33301 4.59467 3.93061 3.99707 4.66699 3.99707H7.22266ZM12.834 3C13.2086 3 13.5096 3.30117 13.5098 3.67578V6.1416C13.5098 6.51502 13.2074 6.81836 12.834 6.81836C12.4606 6.81835 12.1582 6.51501 12.1582 6.1416V5.08008L11.5781 5.89062L8.15527 9.31543C7.89097 9.57972 7.46258 9.57971 7.19824 9.31543C6.93398 9.05117 6.93407 8.62275 7.19824 8.3584L10.627 4.92773L11.4395 4.35254H10.3682C9.99474 4.35254 9.69238 4.0492 9.69238 3.67578C9.69257 3.30252 9.99486 3 10.3682 3H12.834Z" fill="currentColor"/>
</svg>