<svg viewBox="0 0 14 14" fill="none" xmlns="http://www.w3.org/2000/svg">
    <path fill-rule="evenodd" clip-rule="evenodd" d="M0 6.66536C0 10.3473 2.98477 13.332 6.66667 13.332C10.3486 13.332 13.3333 10.3473 13.3333 6.66536C13.3333 2.98347 10.3486 -0.00130272 6.66667 -0.00130272C2.98477 -0.00130272 0 2.98347 0 6.66536ZM7.40741 7.40611C7.40741 7.8152 7.07577 8.14685 6.66667 8.14685C6.25757 8.14685 5.92593 7.8152 5.92593 7.40611V3.7024C5.92593 3.2933 6.25757 2.96166 6.66667 2.96166C7.07577 2.96166 7.40741 3.2933 7.40741 3.7024V7.40611ZM5.92593 9.62833C5.92593 9.21923 6.25757 8.88759 6.66667 8.88759C7.07577 8.88759 7.40741 9.21923 7.40741 9.62833C7.40741 10.0374 7.07577 10.3691 6.66667 10.3691C6.25757 10.3691 5.92593 10.0374 5.92593 9.62833Z" fill="currentColor"/>
</svg>