<svg width="40" height="40" viewBox="0 0 40 40" fill="none" xmlns="http://www.w3.org/2000/svg">
<rect width="40" height="40" rx="10" fill="#F9FAFB"/>
<rect x="0.125" y="0.125" width="39.75" height="39.75" rx="9.875" stroke="#0A0A0A" stroke-opacity="0.15" stroke-width="0.25"/>
<path fill-rule="evenodd" clip-rule="evenodd" d="M9.70041 25.2455C10.5894 25.9005 11.7297 26.2281 13.1217 26.2281C14.8061 26.2281 16.1511 25.8362 17.157 25.0526C18.163 24.2572 18.8706 23.0583 19.28 21.4558C19.5256 20.4733 19.7362 19.4615 19.9116 18.4205C19.9701 18.0462 19.9994 17.7363 19.9994 17.4906C19.9994 16.6719 19.7946 15.9701 19.3853 15.3853C18.9759 14.7887 18.4145 14.3442 17.701 14.0518C16.9874 13.7477 16.1804 13.5957 15.2797 13.5957C11.9696 13.5957 9.91678 15.204 9.12143 18.4205C8.84073 19.6019 8.62436 20.6137 8.47223 21.4558C8.41379 21.8301 8.38452 22.146 8.38452 22.4033C8.38452 23.6315 8.82315 24.5789 9.70041 25.2455ZM15.0341 23.1226C14.5779 23.5086 14.0224 23.7016 13.3673 23.7016C12.2445 23.7016 11.683 23.1636 11.683 22.0874C11.683 21.8301 11.7064 21.5845 11.7532 21.3506C11.9637 20.216 12.1743 19.2569 12.3848 18.4732C12.5836 17.6778 12.9112 17.0872 13.3673 16.7011C13.8352 16.3151 14.3966 16.1221 15.0517 16.1221C16.1628 16.1221 16.7184 16.6543 16.7184 17.7187C16.7184 17.9761 16.695 18.2276 16.6483 18.4732C16.5079 19.2919 16.3032 20.2511 16.0341 21.3506C15.8354 22.146 15.502 22.7366 15.0341 23.1226ZM20.5065 25.9295C20.5767 26.0114 20.6762 26.0524 20.8048 26.0524H23.191C23.3079 26.0524 23.419 26.0114 23.5243 25.9295C23.6295 25.8476 23.6938 25.7424 23.7173 25.6137L24.5243 21.7714H26.8929C28.4252 21.7714 29.63 21.4497 30.5072 20.8064C31.3962 20.1631 31.9869 19.1688 32.2793 17.8237C32.3495 17.5079 32.3845 17.2037 32.3845 16.9114C32.3845 15.8937 31.9869 15.116 31.1914 14.5778C30.4078 14.0398 29.3668 13.7708 28.0685 13.7708H23.4014C23.2845 13.7708 23.1734 13.8118 23.0681 13.8936C22.9628 13.9755 22.8985 14.0808 22.8751 14.2094L20.4539 25.6137C20.4305 25.7307 20.448 25.8359 20.5065 25.9295ZM28.2965 18.9466C27.9339 19.2156 27.507 19.3501 27.0158 19.3501H24.998L25.6647 16.2096H27.7702C28.2498 16.2096 28.5889 16.3031 28.7878 16.4903C28.9867 16.6657 29.0861 16.923 29.0861 17.2623C29.0861 17.4143 29.0685 17.5897 29.0334 17.7886C28.9165 18.2916 28.6708 18.6776 28.2965 18.9466Z" fill="#2E2E2E"/>
</svg>
