<svg width="40" height="40" viewBox="0 0 40 40" fill="none" xmlns="http://www.w3.org/2000/svg">
<rect width="40" height="40" rx="10" fill="#F9FAFB"/>
<rect x="0.125" y="0.125" width="39.75" height="39.75" rx="9.875" stroke="#0A0A0A" stroke-opacity="0.15" stroke-width="0.25"/>
<g clip-path="url(#clip0_4492_397)">
<path fill-rule="evenodd" clip-rule="evenodd" d="M7 25.959V11.7693C7 11.3001 7.29614 10.85 7.82327 10.5182C8.3504 10.1864 9.06534 10 9.81081 10H30.1892C30.9347 10 31.6496 10.1864 32.1767 10.5182C32.7039 10.85 33 11.3001 33 11.7693V25.959C32.9998 26.224 32.9049 26.4857 32.7224 26.7245C32.54 26.9634 32.2747 27.1734 31.9459 27.3391L21.3176 32.7089C20.9437 32.8973 20.4789 33 20 33C19.5211 33 19.0563 32.8973 18.6824 32.7089L8.05405 27.3391C7.72537 27.1734 7.46 26.9634 7.27756 26.7245C7.09512 26.4857 7.00026 26.224 7 25.959ZM27.5282 15.0767V18.1768C27.5282 18.5874 27.2749 18.9812 26.824 19.2718C26.373 19.5624 25.7613 19.726 25.123 19.7268C25.762 19.7268 26.375 19.8902 26.8269 20.1808C27.2788 20.4715 27.5327 20.8657 27.5327 21.2768V24.0718C27.5325 24.3039 27.4512 24.5332 27.2947 24.7424C27.1383 24.9517 26.9109 25.1357 26.629 25.2808L22.9 27.2067C22.8557 27.2295 22.8023 27.2438 22.7459 27.2479C22.6895 27.2521 22.6326 27.2459 22.5814 27.2301C22.5303 27.2144 22.487 27.1896 22.4569 27.1587C22.4266 27.1278 22.4106 27.0921 22.4105 27.0556V21.6644C22.4105 21.356 22.2201 21.0603 21.8811 20.8424C21.5423 20.6243 21.0825 20.5018 20.6032 20.5018H17.8922C17.8123 20.5018 17.7357 20.5223 17.6792 20.5586C17.6227 20.5949 17.591 20.6442 17.591 20.6956V27.0556C17.5912 27.0922 17.5752 27.1282 17.5449 27.1592C17.5146 27.1903 17.4712 27.2152 17.4198 27.231C17.3684 27.2469 17.3111 27.253 17.2544 27.2487C17.1978 27.2443 17.1443 27.2298 17.1 27.2067L13.3709 25.2808C13.0892 25.1357 12.8617 24.9517 12.7053 24.7424C12.5488 24.5332 12.4675 24.3039 12.4673 24.0718V15.0767C12.4673 14.6656 12.7212 14.2714 13.1731 13.9807C13.625 13.69 14.2379 13.5267 14.877 13.5267H25.1185C25.7575 13.5267 26.3705 13.69 26.8224 13.9807C27.2743 14.2714 27.5282 14.6656 27.5282 15.0767ZM17.8892 18.9518H20.6002C21.0795 18.9518 21.5392 18.8293 21.8782 18.6113C22.217 18.3933 22.4074 18.0976 22.4074 17.7893V15.2705C22.4074 15.2191 22.3757 15.1698 22.3192 15.1335C22.2627 15.0971 22.1862 15.0767 22.1062 15.0767H17.8892C17.8093 15.0767 17.7327 15.0971 17.6762 15.1335C17.6197 15.1698 17.588 15.2191 17.588 15.2705V18.758C17.588 18.8095 17.6197 18.8587 17.6762 18.895C17.7327 18.9314 17.8093 18.9518 17.8892 18.9518Z" fill="black"/>
</g>
<defs>
<clipPath id="clip0_4492_397">
<rect width="26" height="23" fill="white" transform="translate(7 10)"/>
</clipPath>
</defs>
</svg>
