<svg width="40" height="40" viewBox="0 0 40 40" fill="none" xmlns="http://www.w3.org/2000/svg">
<rect width="40" height="40" rx="20" fill="#F9FAFB"/>
<path fill-rule="evenodd" clip-rule="evenodd" d="M29.6451 13.2144C30.2633 13.6029 30.658 14.2701 30.6871 14.999V24.9723C30.6598 25.6267 30.3556 26.2308 29.8386 26.6315L20.8305 31.8482C20.5734 31.9489 20.3017 32 20.0231 32C19.7192 32 19.3821 31.9338 19.1477 31.82C19.118 31.8055 19.0339 31.7593 18.9104 31.69C18.8306 31.6451 18.7335 31.5902 18.6245 31.5282L15.3273 29.6299L15.3268 29.6307L12.5704 28.0437L20.4562 15.0307L23.9418 15.018L16.0768 28.3586L19.7458 30.4689C19.9113 30.5362 20.1067 30.5396 20.2737 30.4792L23.3743 28.6824L20.064 23.487L22.0849 20.0576L26.4324 26.9101L26.4332 26.9097L27.2883 26.4141L22.7023 18.9971L24.4648 16.0064L29.2027 23.3857V15.0537C29.1914 14.8147 29.0646 14.5962 28.8623 14.4673L20.3092 9.54752C20.1092 9.44916 19.8555 9.45034 19.6557 9.55062C19.6287 9.5642 11.1319 14.4828 11.0924 14.5108C10.935 14.6238 10.8303 14.7908 10.7966 14.9782C10.7916 15.0064 10.7879 15.0352 10.7861 15.0643L10.7991 23.0272L15.2239 16.1692C15.7811 15.2598 16.995 14.9668 18.1217 14.9827L19.4442 15.0176L11.6518 27.5145L9.31006 26.1652V25.3152L9.31042 25.3146V14.9946C9.34513 14.3194 9.68153 13.7048 10.2334 13.3092C10.3381 13.2341 10.4494 13.1681 10.5651 13.1128C10.5651 13.1128 18.9194 8.26744 18.9918 8.23097C19.6045 7.92276 20.3684 7.92321 20.9799 8.23112L29.6451 13.2144Z" fill="black"/>
<rect x="0.125" y="0.125" width="39.75" height="39.75" rx="19.875" stroke="#0F171F" stroke-opacity="0.15" stroke-width="0.25"/>
</svg>
