<svg width="40" height="40" viewBox="0 0 40 40" fill="none" xmlns="http://www.w3.org/2000/svg">
<rect width="40" height="40" rx="10" fill="#F9FAFB"/>
<rect x="0.125" y="0.125" width="39.75" height="39.75" rx="9.875" stroke="#0A0A0A" stroke-opacity="0.15" stroke-width="0.25"/>
<g clip-path="url(#clip0_4480_481)">
<path d="M19.6385 32.0284V27.9139C20.0634 27.9139 20.4975 27.8779 20.9223 27.8149L21.5873 31.8753C20.9408 31.9834 20.285 32.0284 19.6385 32.0284ZM17.699 31.8843C17.0525 31.7853 16.4153 31.6413 15.7965 31.4432L17.0987 27.5268C17.5051 27.6528 17.9299 27.7519 18.3548 27.8149L17.699 31.8843ZM23.4806 31.4432L22.1783 27.5358C22.5847 27.4097 22.9818 27.2477 23.3697 27.0586L25.2908 30.7229C24.7089 31.002 24.0994 31.2451 23.4806 31.4432ZM13.9955 30.7229C13.4137 30.4348 12.8596 30.1017 12.3331 29.7326L14.8267 26.4104C15.1685 26.6535 15.5379 26.8786 15.9258 27.0586L13.9955 30.7229ZM26.9532 29.7236L24.4596 26.4014C24.8013 26.1583 25.1338 25.8882 25.4385 25.5911L28.4309 28.4991C27.9691 28.9403 27.4704 29.3544 26.9532 29.7236ZM10.8646 28.5171L10.8369 28.4901C10.3752 28.049 9.95032 27.5628 9.57165 27.0586L12.9889 24.6368C13.2382 24.9699 13.5245 25.294 13.8201 25.5821L13.8662 25.6271L12.4255 26.9506L10.8646 28.5171ZM29.6962 27.0496L26.279 24.6278C26.5283 24.2946 26.7592 23.9345 26.9532 23.5654L30.7213 25.429C30.4258 25.9962 30.0841 26.5364 29.6962 27.0496ZM8.55573 25.438C8.26019 24.8798 8.01082 24.2856 7.80764 23.6824L11.8344 22.422C11.9637 22.8181 12.1299 23.2052 12.3239 23.5744L8.55573 25.438ZM31.4694 23.6824L27.4427 22.413C27.572 22.0168 27.6736 21.6117 27.7382 21.1975L31.922 21.8368C31.8204 22.458 31.6634 23.0792 31.4694 23.6824ZM7.35509 21.8458C7.2535 21.2245 7.19809 20.5853 7.19809 19.9551H11.428C11.428 20.3692 11.465 20.7924 11.5296 21.2065L7.35509 21.8458ZM27.8398 19.9461C27.8398 19.5319 27.8029 19.1088 27.7382 18.6946L31.922 18.0554C32.0236 18.6766 32.0697 19.3159 32.079 19.9461H27.8398ZM11.5296 18.7036L7.34586 18.0644C7.44745 17.4432 7.59522 16.822 7.7984 16.2188L11.8252 17.4792C11.6959 17.8843 11.5943 18.2895 11.5296 18.7036ZM27.4427 17.4792C27.3134 17.0831 27.1471 16.6959 26.9532 16.3268L30.7213 14.4631C31.0169 15.0213 31.2662 15.6155 31.4694 16.2188L27.4427 17.4792ZM12.3146 16.3358L8.53726 14.4721C8.8328 13.9049 9.17452 13.3647 9.56242 12.8516L12.9889 15.2734C12.7395 15.6065 12.5086 15.9667 12.3146 16.3358ZM26.279 15.2644C26.0296 14.9313 25.7433 14.6072 25.4385 14.3101L25.4293 14.3011L28.4217 11.393L28.4309 11.402C28.8927 11.8522 29.3175 12.3294 29.6962 12.8425L26.279 15.2644ZM13.8201 14.3281L12.915 13.4368L10.8369 11.42L10.8462 11.411C11.308 10.9699 11.7975 10.5557 12.3146 10.1866L14.8083 13.5088C14.4666 13.7519 14.1341 14.022 13.8385 14.3191L13.8201 14.3281ZM24.4503 13.4908C24.1086 13.2477 23.7392 13.0316 23.3513 12.8425L25.2723 9.17824C25.8541 9.46634 26.4083 9.79946 26.9347 10.1686L24.4503 13.4908ZM15.8981 12.8516L13.9678 9.18724C14.5497 8.89914 15.15 8.65605 15.7688 8.45798L17.0803 12.3654C16.6831 12.5004 16.286 12.6625 15.8981 12.8516ZM22.1599 12.3654C21.7535 12.2393 21.3287 12.1403 20.9038 12.0773L21.5596 8.01682C22.1968 8.11586 22.8433 8.25991 23.4621 8.45798L22.1599 12.3654ZM18.3455 12.0773L17.6806 8.01682C18.3178 7.91779 18.9736 7.86377 19.6201 7.86377V11.9782C19.1952 11.9782 18.7611 12.0143 18.3455 12.0773Z" fill="black"/>
<path d="M19.6386 28.1032V23.9707C19.9988 23.9707 20.3497 23.9257 20.7007 23.8356L21.809 27.8241C21.0978 28.0041 20.3682 28.1032 19.6386 28.1032ZM17.4682 27.8241C16.7571 27.644 16.0829 27.3739 15.4456 27.0138L17.5883 23.4395C17.893 23.6106 18.2255 23.7456 18.5672 23.8356L17.4682 27.8241ZM23.8223 27.0138L21.6797 23.4395C21.9844 23.2684 22.2708 23.0524 22.5294 22.8093L22.5663 22.7733L23.9147 24.1507L25.5771 25.7083L25.5494 25.7353C25.0322 26.2305 24.4504 26.6626 23.8223 27.0138ZM13.7185 25.7353C13.2013 25.2311 12.7488 24.6729 12.3886 24.0607L16.0921 21.99C16.2676 22.2871 16.4892 22.5572 16.7478 22.8093L13.7185 25.7353ZM26.8886 24.0517L23.1851 21.99C23.3606 21.6929 23.4991 21.3778 23.5915 21.0446L27.7198 22.107C27.5351 22.7823 27.2488 23.4395 26.8886 24.0517ZM11.5481 22.116C11.3634 21.4318 11.2618 20.7295 11.2618 20.0273H15.538C15.538 20.3694 15.5841 20.7205 15.6765 21.0536L11.5481 22.116ZM23.7208 20.0183C23.7208 19.6761 23.6746 19.325 23.5822 18.9919L27.7198 17.9295C27.9045 18.6138 28.0061 19.316 28.0061 20.0183H23.7208ZM15.6857 19.0009L11.5481 17.9385C11.7329 17.2543 12.0192 16.597 12.3794 15.9848L16.0829 18.0466C15.9166 18.3527 15.7781 18.6678 15.6857 19.0009ZM23.1758 18.0466C23.0004 17.7585 22.788 17.4794 22.5294 17.2363L22.5201 17.2273L24.0532 15.7507L25.5217 14.2832L25.5494 14.3102C26.0666 14.8054 26.5099 15.3726 26.8794 15.9758L23.1758 18.0466ZM16.7478 17.2363L15.2332 15.7687L13.6816 14.3462L13.7185 14.3102C14.2357 13.806 14.8176 13.3829 15.4456 13.0228L17.5883 16.597C17.2835 16.7681 17.0064 16.9752 16.7478 17.2183V17.2363ZM21.6797 16.597C21.3749 16.426 21.0424 16.2909 20.7007 16.2009L21.7905 12.2125C22.5016 12.3925 23.1758 12.6626 23.8131 13.0228L21.6797 16.597ZM18.5765 16.2099L17.4682 12.2215C18.1701 12.0414 18.8997 11.9424 19.6294 11.9424V16.0749C19.2784 16.0749 18.9182 16.1199 18.5765 16.2099Z" fill="black"/>
</g>
<defs>
<clipPath id="clip0_4480_481">
<rect width="29" height="28" fill="white" transform="matrix(-1 0 0 1 34 6)"/>
</clipPath>
</defs>
</svg>
