<svg width="40" height="40" viewBox="0 0 40 40" fill="none" xmlns="http://www.w3.org/2000/svg">
<rect width="40" height="40" rx="10" fill="#F9FAFB"/>
<rect x="0.125" y="0.125" width="39.75" height="39.75" rx="9.875" stroke="#0A0A0A" stroke-opacity="0.15" stroke-width="0.25"/>
<path fill-rule="evenodd" clip-rule="evenodd" d="M11.7907 17.4801C10.9237 16.6673 10.3276 15.6107 10.3276 14.3644V14.229C10.4089 12.1157 12.1429 10.3817 14.2562 10.3276H27.776C28.1282 10.3547 28.3991 10.5985 28.3991 10.9507V22.4111C28.6305 22.4531 28.7802 22.4952 28.975 22.5499L28.9751 22.55L28.9753 22.55C29.0314 22.5658 29.0912 22.5826 29.1577 22.6007C29.4016 22.682 29.7267 22.8716 29.7267 22.8716V10.9507C29.6996 9.86698 28.8326 9 27.7489 9H14.2562C11.3301 9.05419 9 11.4384 9 14.3644C9 16.0713 9.78572 17.5343 11.032 18.5368C11.1133 18.618 11.1946 18.6993 11.4384 18.6993C11.8448 18.6993 12.1158 18.3742 12.0887 18.0491C12.0887 17.7511 11.9803 17.6427 11.7907 17.4801ZM27.4237 23.1702H16.8301C16.1257 23.1702 15.5567 23.7392 15.5567 24.4707V25.9879C15.5838 26.6923 16.1798 27.2884 16.8843 27.2884H17.67V25.9879H16.8843V24.4978H17.3178C18.6454 24.4978 19.6478 25.744 19.6478 27.0716C19.6478 28.2637 18.5641 29.7538 16.7759 29.6454C15.1774 29.5371 14.3104 28.1282 14.3104 27.0716V14.1482C14.3104 13.5793 13.8227 13.0916 13.2537 13.0916H12.1971V14.4191H12.9828V27.0987C12.9286 29.6725 14.8252 30.973 16.7759 30.973L27.4508 31.0001C29.5912 31.0001 31.3523 29.2661 31.3523 27.0987C31.3252 24.9313 29.5912 23.1702 27.4237 23.1702ZM29.9976 27.1529C29.9435 28.5346 28.8055 29.6454 27.4237 29.6454L20.0001 29.6184C20.5961 28.941 20.9483 28.047 20.9483 27.0716C20.9483 25.5544 20.0542 24.4978 20.0542 24.4978H27.4508C28.8597 24.4978 30.0247 25.6628 30.0247 27.0716L29.9976 27.1529ZM16.5863 14.6356H24.579C24.9583 14.6356 25.2292 14.3375 25.2292 13.9853C25.2292 13.6331 24.9312 13.3351 24.579 13.3351H16.5863V14.6356ZM24.579 20.867H16.5863V19.5394H24.579C24.9312 19.5394 25.2292 19.8374 25.2292 20.1896C25.2292 20.5689 24.9583 20.867 24.579 20.867ZM16.5864 17.7515H25.9879C26.3401 17.7515 26.6382 17.4535 26.6382 17.0742C26.6382 16.722 26.3401 16.424 25.9879 16.424H16.5864V17.7515Z" fill="black"/>
</svg>
