<svg width="36" height="36" viewBox="0 0 36 36" fill="none" xmlns="http://www.w3.org/2000/svg">
<g filter="url(#filter0_d_5080_49004)">
<rect x="2" y="1" width="32" height="32" rx="6" fill="#0B5AFF"/>
<rect x="2.125" y="1.125" width="31.75" height="31.75" rx="5.875" stroke="#F9FAFB" stroke-opacity="0.15" stroke-width="0.25"/>
<path d="M18 6C24.0751 6 29 10.9249 29 17C29 23.0751 24.0751 28 18 28C11.9249 28 7 23.0751 7 17C7 10.9249 11.9249 6 18 6ZM15.25 13.5C14.8358 13.5 14.5 13.8358 14.5 14.25V19.75C14.5 20.1642 14.8358 20.5 15.25 20.5H20.75C21.1642 20.5 21.5 20.1642 21.5 19.75V14.25C21.5 13.8358 21.1642 13.5 20.75 13.5H15.25Z" fill="white"/>
</g>
<defs>
<filter id="filter0_d_5080_49004" x="0" y="0" width="36" height="36" filterUnits="userSpaceOnUse" color-interpolation-filters="sRGB">
<feFlood flood-opacity="0" result="BackgroundImageFix"/>
<feColorMatrix in="SourceAlpha" type="matrix" values="0 0 0 0 0 0 0 0 0 0 0 0 0 0 0 0 0 0 127 0" result="hardAlpha"/>
<feOffset dy="1"/>
<feGaussianBlur stdDeviation="1"/>
<feComposite in2="hardAlpha" operator="out"/>
<feColorMatrix type="matrix" values="0 0 0 0 0 0 0 0 0 0 0 0 0 0 0 0 0 0 0.1 0"/>
<feBlend mode="normal" in2="BackgroundImageFix" result="effect1_dropShadow_5080_49004"/>
<feBlend mode="normal" in="SourceGraphic" in2="effect1_dropShadow_5080_49004" result="shape"/>
</filter>
</defs>
</svg>
