<svg width="64" height="64" viewBox="0 0 64 64" fill="none" xmlns="http://www.w3.org/2000/svg">
    <rect width="64" height="64" rx="32" fill="currentColor"/>
    <path fill-rule="evenodd" clip-rule="evenodd" d="M21.2305 40.9396C20.467 40.4522 20 39.5842 20 38.6521V33.4475C20 33.2483 20.0511 33.0562 20.1466 32.8854C20.4431 32.3518 21.101 32.1704 21.6123 32.4834L32.8675 39.3316C33.5254 39.7336 33.931 40.4664 33.931 41.2633V46.6565C33.931 46.9019 33.8662 47.1474 33.7435 47.3573C33.372 47.9905 32.5812 48.1897 31.9744 47.802L21.2305 40.9396ZM38.0077 31.0569C38.6655 31.4589 39.0712 32.1917 39.0712 32.9886V43.9314C39.0712 44.2552 38.9041 44.554 38.6349 44.7105L36.1704 46.1584C36.1398 46.1762 36.1057 46.1904 36.0716 46.2011V40.1249C36.0716 39.3387 35.6762 38.6094 35.0285 38.2039L25.1436 32.0316V25.1728C25.1436 24.9736 25.1947 24.7815 25.2902 24.6107C25.5867 24.0771 26.2446 23.8957 26.7559 24.2087L38.0077 31.0569ZM42.9331 22.9743C43.5944 23.3727 44 24.1127 44 24.9095V40.8933C44 41.2206 43.8262 41.523 43.5501 41.6795L41.2152 42.9958V31.868C41.2152 31.0818 40.8198 30.3561 40.1755 29.9505L30.0724 23.6253V17.1186C30.0724 16.9194 30.1236 16.7273 30.2156 16.5566C30.5121 16.0229 31.17 15.8415 31.6813 16.151L42.9331 22.9743Z" fill="#00D395"/>
</svg>
