<svg width="40" height="40" viewBox="0 0 40 40" fill="none" xmlns="http://www.w3.org/2000/svg">
<rect width="40" height="40" rx="20" fill="currentColor"/>
<path fill-rule="evenodd" clip-rule="evenodd" d="M11.0254 27.451C10.3891 27.0448 10 26.3214 10 25.5447V21.2076C10 21.0415 10.0426 20.8815 10.1221 20.7392C10.3693 20.2945 10.9175 20.1433 11.3436 20.4042L20.7229 26.111C21.2711 26.446 21.6091 27.0567 21.6091 27.7207V32.215C21.6091 32.4196 21.5552 32.6241 21.4529 32.799C21.1433 33.3267 20.4843 33.4928 19.9787 33.1696L11.0254 27.451ZM25.0064 19.2154C25.5546 19.5504 25.8926 20.1611 25.8926 20.8251V29.9442C25.8926 30.2139 25.7534 30.463 25.529 30.5934L23.4754 31.8C23.4498 31.8148 23.4214 31.8267 23.393 31.8356V26.7721C23.393 26.1169 23.0635 25.5092 22.5238 25.1712L14.2863 20.0277V14.312C14.2863 14.1459 14.3289 13.9859 14.4085 13.8436C14.6556 13.3989 15.2038 13.2477 15.6299 13.5086L25.0064 19.2154ZM29.1109 12.4799C29.662 12.8119 30 13.4285 30 14.0926V27.4124C30 27.6852 29.8551 27.9371 29.6251 28.0676L27.6793 29.1645V19.8913C27.6793 19.2361 27.3498 18.6313 26.813 18.2934L18.3937 13.0224V7.60017C18.3937 7.43415 18.4363 7.27407 18.513 7.13177C18.7601 6.68708 19.3083 6.53589 19.7344 6.79381L29.1109 12.4799Z" fill="#00C289"/>
</svg>
