<svg width="126" height="30" viewBox="0 0 126 30" fill="none" xmlns="http://www.w3.org/2000/svg">
<path fill-rule="evenodd" clip-rule="evenodd" d="M107.945 15.2636C107.945 13.8728 107.121 12.8257 105.82 12.8257C104.519 12.8257 103.695 13.8728 103.695 15.2636C103.695 16.6545 104.519 17.7016 105.82 17.7016C107.123 17.7042 107.945 16.6571 107.945 15.2636ZM107.881 11.8923V8.2486C107.881 8.00798 108.043 7.79909 108.277 7.73827L110.222 7.22266V19.5525H108.065V18.5054C107.522 19.2907 106.549 19.7508 105.331 19.7508C102.828 19.7508 101.363 17.7545 101.363 15.2663C101.363 12.7781 102.828 10.7817 105.331 10.7817C106.546 10.7791 107.437 11.3026 107.881 11.8923ZM94.6126 10.9748V12.0219C95.0089 11.2841 95.8972 10.7764 97.1817 10.7764C99.2562 10.7764 100.36 12.1514 100.36 14.198V19.5525H98.0221V14.4625C98.0221 13.4629 97.594 12.7755 96.5567 12.7755C95.4211 12.7755 94.7961 13.4947 94.7961 14.6423V19.5525H92.4583V10.9748H94.6126ZM86.9929 19.7508C84.4743 19.7508 83.0727 18.6694 83.0727 15.8877V10.9748H85.4105V15.9194C85.4105 17.1146 85.953 17.6699 86.9903 17.6699C88.0275 17.6699 88.5701 17.1119 88.5701 15.9194V10.9748H90.9078V15.885C90.9131 18.6694 89.5115 19.7508 86.9929 19.7508ZM75.3547 15.2636C75.3547 16.8026 76.3095 17.7016 77.5435 17.7016C78.7775 17.7016 79.7323 16.7999 79.7323 15.2636C79.7323 13.7274 78.7775 12.8257 77.5435 12.8257C76.3121 12.8257 75.3547 13.7247 75.3547 15.2636ZM77.5462 19.7508C74.7802 19.7508 73.0169 17.7042 73.0169 15.2663C73.0169 12.8283 74.7775 10.7817 77.5462 10.7817C80.3121 10.7817 82.0754 12.8283 82.0754 15.2663C82.0727 17.7042 80.3121 19.7508 77.5462 19.7508ZM65.8919 15.2636C65.8919 16.6545 66.7164 17.7016 68.0169 17.7016C69.3175 17.7016 70.1419 16.6545 70.1419 15.2636C70.1419 13.8728 69.3175 12.8257 68.0169 12.8257C66.7164 12.8257 65.8919 13.8728 65.8919 15.2636ZM65.9584 18.6376V22.2046C65.9584 22.4453 65.7962 22.6542 65.5622 22.715L63.6207 23.2227V10.9748H65.7776V12.0219C66.3201 11.2365 67.2935 10.7764 68.5116 10.7764C71.0143 10.7764 72.4797 12.7728 72.4797 15.261C72.4797 17.7492 71.0143 19.7455 68.5116 19.7455C67.2909 19.7508 66.4026 19.2273 65.9584 18.6376ZM56.6765 14.674V19.5525H54.3388V14.4625C54.3388 13.5132 53.993 12.7755 52.9558 12.7755C51.8681 12.7755 51.275 13.4788 51.275 14.6264V19.5552H48.9372V10.9748H51.0941V12.0219C51.4904 11.2841 52.3468 10.7764 53.5808 10.7764C54.751 10.7764 55.5888 11.2339 56.0835 11.9875C56.8414 11.1519 57.7138 10.7764 58.9478 10.7764C61.0223 10.7764 62.0755 12.2017 62.0755 14.198V19.5525H59.7377V14.4625C59.7377 13.5132 59.392 12.7755 58.3547 12.7755C57.251 12.7755 56.6765 13.4788 56.6765 14.674ZM41.1367 15.2636C41.1367 16.8026 42.0915 17.7016 43.3255 17.7016C44.5596 17.7016 45.5144 16.7999 45.5144 15.2636C45.5144 13.7274 44.5596 12.8257 43.3255 12.8257C42.0915 12.8257 41.1367 13.7247 41.1367 15.2636ZM43.3255 19.7508C40.5596 19.7508 38.7963 17.7042 38.7963 15.2663C38.7963 12.8283 40.5569 10.7817 43.3255 10.7817C46.0941 10.7817 47.8548 12.8283 47.8548 15.2663C47.8548 17.7042 46.0915 19.7508 43.3255 19.7508ZM26.666 13.7247C26.666 10.0916 29.1846 7.68275 32.5437 7.68275C35.4585 7.68275 37.7644 9.40147 38.2085 12.2334H35.6394C35.2936 10.7764 34.1075 9.95675 32.5437 9.95675C30.4027 9.95675 29.2006 11.4296 29.2006 13.7221C29.2006 16.0146 30.4027 17.4874 32.5437 17.4874C34.1075 17.4874 35.2936 16.6677 35.6394 15.2108H38.2085C37.7644 18.0427 35.4585 19.7614 32.5437 19.7614C29.1846 19.7667 26.666 17.3605 26.666 13.7247Z" fill="currentColor"/>
<mask id="mask0_6254_15423" style="mask-type:luminance" maskUnits="userSpaceOnUse" x="8" y="1" width="12" height="21">
<path fill-rule="evenodd" clip-rule="evenodd" d="M18.5418 6.2307C19.0561 6.52953 19.3716 7.0845 19.3716 7.68216V19.67C19.3716 19.9155 19.2364 20.1423 19.0217 20.2597L17.2056 21.2469V12.901C17.2056 12.3113 16.8981 11.767 16.397 11.4629L8.53906 6.71897V1.83898C8.53906 1.68957 8.57883 1.54549 8.65041 1.41742C8.88106 1.0172 9.39273 0.881128 9.7904 1.11325L18.5418 6.2307Z" fill="white"/>
</mask>
<g mask="url(#mask0_6254_15423)">
<path fill-rule="evenodd" clip-rule="evenodd" d="M18.5418 6.2307C19.0561 6.52953 19.3716 7.0845 19.3716 7.68216V19.67C19.3716 19.9155 19.2364 20.1423 19.0217 20.2597L17.2056 21.2469V12.901C17.2056 12.3113 16.8981 11.767 16.397 11.4629L8.53906 6.71897V1.83898C8.53906 1.68957 8.57883 1.54549 8.65041 1.41742C8.88106 1.0172 9.39273 0.881128 9.7904 1.11325L18.5418 6.2307Z" fill="#00C289"/>
</g>
<mask id="mask1_6254_15423" style="mask-type:luminance" maskUnits="userSpaceOnUse" x="4" y="7" width="12" height="17">
<path fill-rule="evenodd" clip-rule="evenodd" d="M14.7105 12.2942C15.2221 12.5957 15.5376 13.1453 15.5376 13.743V21.9501C15.5376 22.1929 15.4077 22.417 15.1983 22.5344L13.2815 23.6204C13.2577 23.6337 13.2311 23.6444 13.2046 23.6524V19.0952C13.2046 18.5056 12.8971 17.9586 12.3934 17.6545L4.70508 13.0253V7.88115C4.70508 7.73174 4.74485 7.58766 4.81908 7.45959C5.04973 7.05937 5.5614 6.9233 5.95907 7.15809L14.7105 12.2942Z" fill="white"/>
</mask>
<g mask="url(#mask1_6254_15423)">
<path fill-rule="evenodd" clip-rule="evenodd" d="M14.7105 12.2942C15.2221 12.5957 15.5376 13.1453 15.5376 13.743V21.9501C15.5376 22.1929 15.4077 22.417 15.1983 22.5344L13.2815 23.6204C13.2577 23.6337 13.2311 23.6444 13.2046 23.6524V19.0952C13.2046 18.5056 12.8971 17.9586 12.3934 17.6545L4.70508 13.0253V7.88115C4.70508 7.73174 4.74485 7.58766 4.81908 7.45959C5.04973 7.05937 5.5614 6.9233 5.95907 7.15809L14.7105 12.2942Z" fill="#00C289"/>
</g>
<mask id="mask2_6254_15423" style="mask-type:luminance" maskUnits="userSpaceOnUse" x="0" y="13" width="12" height="12">
<path fill-rule="evenodd" clip-rule="evenodd" d="M1.66214 19.7033C1.06828 19.3378 0.705078 18.6868 0.705078 17.9877V14.0843C0.705078 13.9349 0.744845 13.7908 0.819077 13.6627C1.04973 13.2625 1.5614 13.1264 1.95907 13.3612L10.7131 18.4973C11.2248 18.7988 11.5403 19.3485 11.5403 19.9461V23.991C11.5403 24.1751 11.4899 24.3592 11.3945 24.5166C11.1055 24.9915 10.4904 25.141 10.0185 24.8501L1.66214 19.7033Z" fill="white"/>
</mask>
<g mask="url(#mask2_6254_15423)">
<path fill-rule="evenodd" clip-rule="evenodd" d="M1.66214 19.7033C1.06828 19.3378 0.705078 18.6868 0.705078 17.9877V14.0843C0.705078 13.9349 0.744845 13.7908 0.819077 13.6627C1.04973 13.2625 1.5614 13.1264 1.95907 13.3612L10.7131 18.4973C11.2248 18.7988 11.5403 19.3485 11.5403 19.9461V23.991C11.5403 24.1751 11.4899 24.3592 11.3945 24.5166C11.1055 24.9915 10.4904 25.141 10.0185 24.8501L1.66214 19.7033Z" fill="#00C289"/>
</g>
</svg>
