<svg width="27" height="27" viewBox="0 0 27 27" fill="none" xmlns="http://www.w3.org/2000/svg">
<rect width="27" height="27" rx="13.5" fill="#131B24"/>
<path fill-rule="evenodd" clip-rule="evenodd" d="M7.44216 18.5285C7.01268 18.2544 6.75 17.7661 6.75 17.2418V14.3142C6.75 14.2022 6.77876 14.0941 6.83245 13.9981C6.99925 13.6979 7.3693 13.5958 7.6569 13.7719L13.988 17.624C14.358 17.8501 14.5862 18.2624 14.5862 18.7106V21.7443C14.5862 21.8823 14.5497 22.0204 14.4807 22.1385C14.2717 22.4947 13.8269 22.6067 13.4856 22.3886L7.44216 18.5285ZM16.8793 12.9695C17.2494 13.1956 17.4775 13.6078 17.4775 14.0561V20.2114C17.4775 20.3935 17.3836 20.5616 17.2321 20.6497L15.8459 21.4641C15.8286 21.4741 15.8094 21.4821 15.7903 21.4881V18.0703C15.7903 17.628 15.5679 17.2178 15.2036 16.9897L9.64327 13.5178V9.6597C9.64327 9.54764 9.67203 9.43958 9.72571 9.34353C9.89252 9.04336 10.2626 8.94131 10.5502 9.1174L16.8793 12.9695ZM19.6499 8.42303C20.0218 8.64715 20.25 9.06337 20.25 9.51162V18.5025C20.25 18.6866 20.1522 18.8567 19.9969 18.9447L18.6835 19.6851V13.4257C18.6835 12.9835 18.4611 12.5753 18.0987 12.3472L12.4157 8.78922V5.12924C12.4157 5.01718 12.4445 4.90912 12.4963 4.81306C12.6631 4.5129 13.0331 4.41085 13.3207 4.58494L19.6499 8.42303Z" fill="#00C289"/>
</svg>
