<svg width="24" height="24" viewBox="0 0 24 24" fill="none" xmlns="http://www.w3.org/2000/svg">
<g clip-path="url(#clip0_5270_74833)">
<path opacity="0.5" d="M23.9805 12.0312C23.9805 12.2969 23.8711 12.5312 23.6523 12.7344L17.6055 18.7695C17.4023 18.9648 17.1719 19.0625 16.9141 19.0625C16.6562 19.0625 16.4375 18.9766 16.2578 18.8047C16.0859 18.6328 16 18.4141 16 18.1484C16 18.0234 16.0195 17.9023 16.0586 17.7852C16.1055 17.668 16.1719 17.5703 16.2578 17.4922L21.7187 12.2422C21.8362 12.1248 21.8387 11.9352 21.7245 11.8147L21.7187 11.8086L16.2578 6.57031C16.1719 6.49219 16.1055 6.39453 16.0586 6.27734C16.0195 6.16016 16 6.03906 16 5.91406C16 5.64844 16.0859 5.42969 16.2578 5.25781C16.4375 5.08594 16.6562 5 16.9141 5C17.1719 5 17.4023 5.09766 17.6055 5.29297L23.6523 11.3281C23.8711 11.5312 23.9805 11.7656 23.9805 12.0312Z" fill="#7A8A99"/>
<path opacity="0.5" d="M15.9805 12.0312C15.9805 12.2969 15.8711 12.5312 15.6523 12.7344L9.60547 18.7695C9.40234 18.9648 9.17187 19.0625 8.91406 19.0625C8.65625 19.0625 8.4375 18.9766 8.25781 18.8047C8.08594 18.6328 8 18.4141 8 18.1484C8 18.0234 8.01953 17.9023 8.05859 17.7852C8.10547 17.668 8.17187 17.5703 8.25781 17.4922L13.7187 12.2422C13.8362 12.1248 13.8387 11.9352 13.7245 11.8147L13.7187 11.8086L8.25781 6.57031C8.17187 6.49219 8.10547 6.39453 8.05859 6.27734C8.01953 6.16016 8 6.03906 8 5.91406C8 5.64844 8.08594 5.42969 8.25781 5.25781C8.4375 5.08594 8.65625 5 8.91406 5C9.17187 5 9.40234 5.09766 9.60547 5.29297L15.6523 11.3281C15.8711 11.5312 15.9805 11.7656 15.9805 12.0312Z" fill="#7A8A99"/>
<path opacity="0.5" d="M7.98047 12.0312C7.98047 12.2969 7.87109 12.5312 7.65234 12.7344L1.60547 18.7695C1.40234 18.9648 1.17187 19.0625 0.914062 19.0625C0.65625 19.0625 0.4375 18.9766 0.257812 18.8047C0.085937 18.6328 0 18.4141 0 18.1484C0 18.0234 0.0195308 17.9023 0.0585933 17.7852C0.105468 17.668 0.171875 17.5703 0.257812 17.4922L5.71875 12.2422C5.83616 12.1248 5.83872 11.9352 5.72453 11.8147L5.71875 11.8086L0.257812 6.57031C0.171875 6.49219 0.105468 6.39453 0.0585933 6.27734C0.0195308 6.16016 0 6.03906 0 5.91406C0 5.64844 0.085937 5.42969 0.257812 5.25781C0.4375 5.08594 0.65625 5 0.914062 5C1.17187 5 1.40234 5.09766 1.60547 5.29297L7.65234 11.3281C7.87109 11.5312 7.98047 11.7656 7.98047 12.0312Z" fill="#7A8A99"/>
</g>
<defs>
<clipPath id="clip0_5270_74833">
<rect width="24" height="24" fill="white"/>
</clipPath>
</defs>
</svg>
