<svg width="176" height="80" viewBox="0 0 176 80" fill="none" xmlns="http://www.w3.org/2000/svg">
<rect x="64.3574" y="18.8594" width="47.2836" height="46.8293" fill="#F0F2F5"/>
<path d="M78.1484 36.1217C78.1484 35.904 78.2349 35.6952 78.3889 35.5412C78.5428 35.3873 78.7516 35.3008 78.9693 35.3008H97.029C97.2467 35.3008 97.4555 35.3873 97.6095 35.5412C97.7634 35.6952 97.8499 35.904 97.8499 36.1217C97.8499 36.3394 97.7634 36.5482 97.6095 36.7021C97.4555 36.8561 97.2467 36.9426 97.029 36.9426H78.9693C78.7516 36.9426 78.5428 36.8561 78.3889 36.7021C78.2349 36.5482 78.1484 36.3394 78.1484 36.1217ZM78.9693 43.5097H86.3574C86.5751 43.5097 86.7839 43.4233 86.9379 43.2693C87.0918 43.1154 87.1783 42.9066 87.1783 42.6888C87.1783 42.4711 87.0918 42.2623 86.9379 42.1084C86.7839 41.9544 86.5751 41.8679 86.3574 41.8679H78.9693C78.7516 41.8679 78.5428 41.9544 78.3889 42.1084C78.2349 42.2623 78.1484 42.4711 78.1484 42.6888C78.1484 42.9066 78.2349 43.1154 78.3889 43.2693C78.5428 43.4233 78.7516 43.5097 78.9693 43.5097ZM87.9992 48.4351H78.9693C78.7516 48.4351 78.5428 48.5216 78.3889 48.6755C78.2349 48.8295 78.1484 49.0383 78.1484 49.256C78.1484 49.4737 78.2349 49.6825 78.3889 49.8365C78.5428 49.9904 78.7516 50.0769 78.9693 50.0769H87.9992C88.2169 50.0769 88.4257 49.9904 88.5796 49.8365C88.7336 49.6825 88.8201 49.4737 88.8201 49.256C88.8201 49.0383 88.7336 48.8295 88.5796 48.6755C88.4257 48.5216 88.2169 48.4351 87.9992 48.4351ZM99.2516 49.8368C99.1754 49.9131 99.0848 49.9737 98.9852 50.015C98.8855 50.0563 98.7787 50.0775 98.6708 50.0775C98.5629 50.0775 98.4561 50.0563 98.3565 50.015C98.2568 49.9737 98.1663 49.9131 98.09 49.8368L96.0029 47.7538C95.1541 48.3138 94.1277 48.5387 93.1225 48.3851C92.1173 48.2315 91.205 47.7102 90.5622 46.9223C89.9194 46.1344 89.592 45.1359 89.6433 44.1204C89.6947 43.1048 90.1212 42.1445 90.8403 41.4254C91.5593 40.7064 92.5196 40.2799 93.5352 40.2285C94.5507 40.1771 95.5492 40.5046 96.3371 41.1474C97.1251 41.7901 97.6463 42.7025 97.7999 43.7077C97.9536 44.7129 97.7286 45.7393 97.1686 46.5881L99.2516 48.6711C99.3286 48.7474 99.3896 48.8382 99.4313 48.9383C99.473 49.0383 99.4944 49.1456 99.4944 49.254C99.4944 49.3623 99.473 49.4696 99.4313 49.5697C99.3896 49.6697 99.3286 49.7605 99.2516 49.8368ZM93.7455 46.7933C94.2325 46.7933 94.7087 46.6489 95.1136 46.3783C95.5186 46.1077 95.8343 45.7231 96.0207 45.2731C96.2071 44.8231 96.2558 44.3279 96.1608 43.8502C96.0658 43.3725 95.8312 42.9337 95.4868 42.5892C95.1424 42.2448 94.7036 42.0103 94.2259 41.9153C93.7482 41.8202 93.253 41.869 92.803 42.0554C92.353 42.2418 91.9684 42.5575 91.6978 42.9624C91.4272 43.3674 91.2828 43.8436 91.2828 44.3306C91.2828 44.9838 91.5422 45.6102 92.0041 46.072C92.4659 46.5339 93.0923 46.7933 93.7455 46.7933Z" fill="#17212B"/>
<rect y="18.2148" width="176" height="0.650406" fill="url(#paint0_linear_6466_28619)"/>
<rect y="65.043" width="176" height="0.650406" fill="url(#paint1_linear_6466_28619)"/>
<rect x="63.7012" y="80" width="80" height="0.656716" transform="rotate(-90 63.7012 80)" fill="url(#paint2_linear_6466_28619)"/>
<rect x="111.643" y="80" width="80" height="0.656716" transform="rotate(-90 111.643 80)" fill="url(#paint3_linear_6466_28619)"/>
<defs>
<linearGradient id="paint0_linear_6466_28619" x1="0" y1="18.54" x2="176" y2="18.54" gradientUnits="userSpaceOnUse">
<stop stop-color="#D8DFE5" stop-opacity="0"/>
<stop offset="0.46" stop-color="#D8DFE5"/>
<stop offset="1" stop-color="#D8DFE5" stop-opacity="0"/>
</linearGradient>
<linearGradient id="paint1_linear_6466_28619" x1="0" y1="65.3682" x2="176" y2="65.3682" gradientUnits="userSpaceOnUse">
<stop stop-color="#D8DFE5" stop-opacity="0"/>
<stop offset="0.46" stop-color="#D8DFE5"/>
<stop offset="1" stop-color="#D8DFE5" stop-opacity="0"/>
</linearGradient>
<linearGradient id="paint2_linear_6466_28619" x1="143.701" y1="80.3284" x2="63.7012" y2="80.3284" gradientUnits="userSpaceOnUse">
<stop stop-color="#D8DFE5" stop-opacity="0"/>
<stop offset="0.475" stop-color="#D8DFE5"/>
<stop offset="1" stop-color="#D8DFE5" stop-opacity="0"/>
</linearGradient>
<linearGradient id="paint3_linear_6466_28619" x1="191.643" y1="80.3284" x2="111.643" y2="80.3284" gradientUnits="userSpaceOnUse">
<stop stop-color="#D8DFE5" stop-opacity="0"/>
<stop offset="0.475" stop-color="#D8DFE5"/>
<stop offset="1" stop-color="#D8DFE5" stop-opacity="0"/>
</linearGradient>
</defs>
</svg>
