<svg width="16" height="16" viewBox="0 0 16 16" fill="none" xmlns="http://www.w3.org/2000/svg">
<mask id="mask0_6338_1221" style="mask-type:luminance" maskUnits="userSpaceOnUse" x="0" y="0" width="16" height="16">
<path d="M16 8C16 6.41775 15.5308 4.87103 14.6518 3.55544C13.7727 2.23985 12.5233 1.21447 11.0615 0.608965C9.59966 0.00346351 7.99113 -0.154963 6.43928 0.153718C4.88743 0.4624 3.46197 1.22433 2.34315 2.34315C1.22433 3.46197 0.462399 4.88743 0.153717 6.43928C-0.154965 7.99113 0.00346185 9.59966 0.608963 11.0615C1.21446 12.5233 2.23984 13.7727 3.55544 14.6518C4.87103 15.5308 6.41775 16 8 16L8 8L16 8Z" fill="white"/>
</mask>
<g mask="url(#mask0_6338_1221)">
<mask id="mask1_6338_1221" style="mask-type:luminance" maskUnits="userSpaceOnUse" x="0" y="0" width="16" height="16">
<path d="M8 16C6.41775 16 4.87103 15.5308 3.55544 14.6518C2.23984 13.7727 1.21446 12.5233 0.608963 11.0615C0.00346254 9.59966 -0.154964 7.99112 0.153718 6.43928C0.4624 4.88743 1.22433 3.46197 2.34315 2.34315C3.46197 1.22433 4.88743 0.462399 6.43928 0.153718C7.99113 -0.154964 9.59966 0.00346289 11.0615 0.608964C12.5233 1.21447 13.7727 2.23985 14.6518 3.55544C15.5308 4.87103 16 6.41775 16 8L8 8L8 16Z" fill="white"/>
</mask>
<g mask="url(#mask1_6338_1221)">
<path d="M8 1C8.91925 1 9.82951 1.18106 10.6788 1.53284C11.5281 1.88463 12.2997 2.40024 12.9497 3.05025C13.5998 3.70026 14.1154 4.47194 14.4672 5.32122C14.8189 6.1705 15 7.08075 15 8C15 8.91925 14.8189 9.82951 14.4672 10.6788C14.1154 11.5281 13.5998 12.2997 12.9497 12.9497C12.2997 13.5998 11.5281 14.1154 10.6788 14.4672C9.8295 14.8189 8.91925 15 8 15C7.08075 15 6.17049 14.8189 5.32122 14.4672C4.47194 14.1154 3.70026 13.5998 3.05025 12.9497C2.40024 12.2997 1.88463 11.5281 1.53284 10.6788C1.18106 9.8295 1 8.91925 1 8C1 7.08075 1.18106 6.17049 1.53284 5.32122C1.88463 4.47194 2.40024 3.70026 3.05025 3.05025C3.70026 2.40024 4.47194 1.88463 5.32122 1.53284C6.1705 1.18106 7.08075 1 8 1L8 1Z" stroke="white" stroke-width="2"/>
</g>
</g>
</svg>
