<svg width="36" height="36" viewBox="0 0 36 36" fill="none" xmlns="http://www.w3.org/2000/svg">
<g filter="url(#filter0_d_5080_48990)">
<rect x="2" y="1" width="32" height="32" rx="6" fill="#3B99FC"/>
<rect x="2.125" y="1.125" width="31.75" height="31.75" rx="5.875" stroke="#F9FAFB" stroke-opacity="0.15" stroke-width="0.25"/>
<path d="M11.5977 12.9692C15.134 9.52067 20.8677 9.52067 24.404 12.9692L24.8296 13.3843C25.0065 13.5567 25.0065 13.8362 24.8296 14.0086L23.3737 15.4284C23.2853 15.5146 23.142 15.5146 23.0535 15.4284L22.4679 14.8573C20.0008 12.4515 16.0009 12.4515 13.5338 14.8573L12.9065 15.4689C12.8181 15.5551 12.6748 15.5551 12.5864 15.4689L11.1305 14.0491C10.9536 13.8767 10.9536 13.5971 11.1305 13.4248L11.5977 12.9692ZM27.415 15.9054L28.7108 17.169C28.8876 17.3414 28.8876 17.621 28.7108 17.7934L22.868 23.491C22.6912 23.6635 22.4046 23.6635 22.2277 23.491L18.0809 19.4473C18.0367 19.4041 17.965 19.4041 17.9208 19.4473L13.774 23.491C13.5973 23.6635 13.3106 23.6635 13.1337 23.491L7.29082 17.7933C7.114 17.6209 7.114 17.3413 7.29082 17.1689L8.5866 15.9053C8.76342 15.7329 9.0501 15.7329 9.22692 15.9053L13.3738 19.9492C13.418 19.9923 13.4897 19.9923 13.5339 19.9492L17.6806 15.9053C17.8574 15.7329 18.144 15.7329 18.3209 15.9053L22.4678 19.9492C22.512 19.9923 22.5836 19.9923 22.6279 19.9492L26.7747 15.9054C26.9515 15.7329 27.2382 15.7329 27.415 15.9054Z" fill="white"/>
</g>
<defs>
<filter id="filter0_d_5080_48990" x="0" y="0" width="36" height="36" filterUnits="userSpaceOnUse" color-interpolation-filters="sRGB">
<feFlood flood-opacity="0" result="BackgroundImageFix"/>
<feColorMatrix in="SourceAlpha" type="matrix" values="0 0 0 0 0 0 0 0 0 0 0 0 0 0 0 0 0 0 127 0" result="hardAlpha"/>
<feOffset dy="1"/>
<feGaussianBlur stdDeviation="1"/>
<feComposite in2="hardAlpha" operator="out"/>
<feColorMatrix type="matrix" values="0 0 0 0 0 0 0 0 0 0 0 0 0 0 0 0 0 0 0.1 0"/>
<feBlend mode="normal" in2="BackgroundImageFix" result="effect1_dropShadow_5080_48990"/>
<feBlend mode="normal" in="SourceGraphic" in2="effect1_dropShadow_5080_48990" result="shape"/>
</filter>
</defs>
</svg>
